<svg width="400" height="48" viewBox="0 0 400 48" fill="none" xmlns="http://www.w3.org/2000/svg">
<g clip-path="url(#clip0_105_20)">
<path opacity="0.5" fill-rule="evenodd" clip-rule="evenodd" d="M0 16C0 16 2.31476 13.2245 3.70365 12.7347C4.21559 12.5542 4.95396 12.3914 5.73794 12.2185C7.08089 11.9224 8.55764 11.5969 9.2592 11.102C9.65942 10.8198 10.2903 10.1579 11.0521 9.35869C12.934 7.38428 15.6152 4.57143 17.5925 4.57143C19.1217 4.57143 21.2122 6.35269 23.0914 7.954C24.6258 9.26147 26.0194 10.449 26.8518 10.449C27.6842 10.449 28.8907 10.9768 30.2191 11.5579C31.8461 12.2696 33.6559 13.0612 35.1851 13.0612C36.5205 13.0612 38.2839 12.1556 40.1152 11.2152C42.0932 10.1994 44.1505 9.14286 45.8333 9.14286C47.5161 9.14286 49.5733 9.49503 51.5514 9.83363C53.3827 10.1471 55.146 10.449 56.4814 10.449C57.8703 10.449 59.4907 9.55102 61.111 8.65306C62.7314 7.7551 64.3518 6.85714 65.7407 6.85714C67.1113 6.85714 68.4453 7.57261 69.7969 8.29751C71.1845 9.04175 72.5907 9.79592 74.074 9.79592C75.6032 9.79592 77.5533 11.1813 79.3064 12.4268C80.7378 13.4437 82.0379 14.3673 82.8703 14.3673H93.5185C95.2671 14.3673 96.8094 12.0381 98.4376 9.57913C100.258 6.82987 102.186 3.91837 104.63 3.91837C108.295 3.91837 111.703 5.37412 114.921 6.74875C117.799 7.97825 120.525 9.14286 123.148 9.14286C125.293 9.14286 126.824 8.27776 128.31 7.43813C129.712 6.64652 131.073 5.87755 132.87 5.87755C134.954 5.87755 136.343 8 137.731 10.1224C139.12 12.2449 140.509 14.3673 142.593 14.3673C145.201 14.3673 146.928 12.7084 148.436 11.2601C149.603 10.1383 150.639 9.14286 151.852 9.14286C153.837 9.14286 155.556 8.01755 157.151 6.97304C158.533 6.06847 159.822 5.22449 161.111 5.22449C163.11 5.22449 164.392 6.06608 165.654 6.89474C166.878 7.69835 168.084 8.4898 169.907 8.4898C172.121 8.4898 174.074 6.09264 175.904 3.84589C177.518 1.86445 179.037 0 180.556 0C182.407 0 183.796 3.59184 185.185 7.18367C186.574 10.7755 187.963 14.3673 189.815 14.3673H201.852C202.979 14.3673 204.56 13.6617 206.079 12.9839C207.483 12.3576 208.833 11.7551 209.722 11.7551C210.555 11.7551 212.042 10.5676 213.679 9.26012C215.684 7.65881 217.915 5.87755 219.444 5.87755C220.78 5.87755 222.008 6.78313 223.284 7.72359C224.662 8.73941 226.095 9.79592 227.778 9.79592C229.945 9.79592 232.224 8.8269 234.299 7.94463C236.033 7.20733 237.624 6.53061 238.889 6.53061C240.6 6.53061 241.882 8.19901 243.151 9.84924C244.392 11.4639 245.62 13.0612 247.222 13.0612C249.074 13.0612 250.694 11.4286 252.315 9.79591C253.935 8.16326 255.556 6.53061 257.407 6.53061C259.321 6.53061 260.864 7.75102 262.355 8.93069C263.75 10.0342 265.1 11.102 266.667 11.102C268.415 11.102 269.751 9.06398 271.161 6.91234C272.738 4.50675 274.408 1.95918 276.852 1.95918C279.228 1.95918 280.384 4.88279 281.51 7.72941C282.579 10.43 283.62 13.0612 285.648 13.0612C287.677 13.0612 289.266 10.2752 290.898 7.41578C292.617 4.40171 294.384 1.30612 296.759 1.30612C299.053 1.30612 300.505 3.2853 301.81 5.06454C302.876 6.51728 303.844 7.83673 305.093 7.83673C306.531 7.83673 307.786 8.86547 309.183 10.0099C310.935 11.4446 312.908 13.0612 315.741 13.0612C318.348 13.0612 319.256 10.4942 320.143 7.98828C320.989 5.59899 321.814 3.26531 324.074 3.26531C326.143 3.26531 327.922 5.5059 329.494 7.48444C330.736 9.0486 331.848 10.449 332.87 10.449C335.775 10.449 336.908 10.9844 337.989 11.4955C338.976 11.962 339.92 12.4082 342.13 12.4082C344.389 12.4082 345.767 9.76332 347.177 7.05546C348.656 4.21545 350.171 1.30612 352.778 1.30612C355.49 1.30612 357.407 3.77118 358.996 5.81329C360.119 7.25728 361.078 8.4898 362.037 8.4898C364.066 8.4898 365.436 9.26369 366.842 10.058C368.324 10.8952 369.846 11.7551 372.222 11.7551C374.074 11.7551 375.463 9.4694 376.852 7.18369C378.241 4.89797 379.63 2.61225 381.482 2.61225C383.466 2.61225 385.717 5.30829 387.806 7.81077C389.615 9.97797 391.303 12 392.593 12C398.148 12 400 14.3333 400 16C400 17.6667 398.148 20 392.593 20C391.303 20 389.615 22.022 387.806 24.1892C385.717 26.6917 383.466 29.3878 381.482 29.3878C379.63 29.3878 378.241 27.102 376.852 24.8163C375.463 22.5306 374.074 20.2449 372.222 20.2449C369.846 20.2449 368.324 21.1048 366.842 21.942C365.436 22.7363 364.066 23.5102 362.037 23.5102C361.078 23.5102 360.119 24.7427 358.996 26.1867C357.407 28.2288 355.49 30.6939 352.778 30.6939C350.171 30.6939 348.656 27.7846 347.177 24.9445C345.767 22.2367 344.389 19.5918 342.13 19.5918C339.92 19.5918 338.976 20.038 337.989 20.5045C336.908 21.0156 335.775 21.551 332.87 21.551C331.848 21.551 330.736 22.9514 329.494 24.5156C327.922 26.4941 326.143 28.7347 324.074 28.7347C321.814 28.7347 320.989 26.401 320.143 24.0117C319.256 21.5058 318.348 18.9388 315.741 18.9388C312.908 18.9388 310.935 20.5554 309.183 21.99C307.786 23.1345 306.531 24.1633 305.093 24.1633C303.844 24.1633 302.876 25.4827 301.81 26.9355C300.505 28.7147 299.053 30.6939 296.759 30.6939C294.384 30.6939 292.617 27.5983 290.898 24.5842C289.266 21.7248 287.677 18.9388 285.648 18.9388C283.62 18.9388 282.579 21.57 281.51 24.2706C280.384 27.1172 279.228 30.0408 276.852 30.0408C274.408 30.0408 272.738 27.4933 271.161 25.0877C269.751 22.936 268.415 20.898 266.667 20.898C265.1 20.898 263.75 21.9658 262.355 23.0693C260.864 24.249 259.321 25.4694 257.407 25.4694C255.556 25.4694 253.935 23.8367 252.315 22.2041C250.694 20.5714 249.074 18.9388 247.222 18.9388C245.62 18.9388 244.392 20.5361 243.151 22.1508C241.882 23.801 240.6 25.4694 238.889 25.4694C237.624 25.4694 236.033 24.7927 234.299 24.0554C232.224 23.1731 229.945 22.2041 227.778 22.2041C226.095 22.2041 224.662 23.2606 223.284 24.2764C222.008 25.2169 220.78 26.1224 219.444 26.1224C217.915 26.1224 215.684 24.3412 213.679 22.7399C212.042 21.4324 210.555 20.2449 209.722 20.2449C208.833 20.2449 207.483 19.6424 206.079 19.0161C204.56 18.3383 202.979 17.6327 201.852 17.6327H189.815C187.963 17.6327 186.574 21.2245 185.185 24.8163C183.796 28.4082 182.407 32 180.556 32C179.037 32 177.518 30.1355 175.904 28.1541C174.074 25.9074 172.121 23.5102 169.907 23.5102C168.084 23.5102 166.878 24.3017 165.654 25.1053C164.392 25.9339 163.11 26.7755 161.111 26.7755C159.822 26.7755 158.533 25.9315 157.151 25.027C155.556 23.9824 153.837 22.8571 151.852 22.8571C150.639 22.8571 149.603 21.8617 148.436 20.7399C146.928 19.2916 145.201 17.6327 142.593 17.6327C140.509 17.6327 139.12 19.7551 137.731 21.8776C136.343 24 134.954 26.1224 132.87 26.1224C131.073 26.1224 129.712 25.3535 128.31 24.5619C126.824 23.7222 125.293 22.8571 123.148 22.8571C120.525 22.8571 117.799 24.0217 114.921 25.2512C111.703 26.6259 108.295 28.0816 104.63 28.0816C102.186 28.0816 100.258 25.1701 98.4376 22.4209C96.8094 19.9619 95.2671 17.6327 93.5185 17.6327H82.8703C82.0379 17.6327 80.7378 18.5563 79.3064 19.5732C77.5533 20.8187 75.6032 22.2041 74.074 22.2041C72.5907 22.2041 71.1845 22.9583 69.7969 23.7025C68.4453 24.4274 67.1113 25.1429 65.7407 25.1429C64.3518 25.1429 62.7314 24.2449 61.111 23.3469C59.4907 22.449 57.8703 21.551 56.4814 21.551C55.146 21.551 53.3827 21.8529 51.5514 22.1664C49.5733 22.505 47.5161 22.8571 45.8333 22.8571C44.1505 22.8571 42.0932 21.8006 40.1152 20.7848C38.2839 19.8444 36.5205 18.9388 35.1851 18.9388C33.6559 18.9388 31.8461 19.7304 30.2191 20.4421C28.8907 21.0232 27.6842 21.551 26.8518 21.551C26.0194 21.551 24.6258 22.7385 23.0914 24.046C21.2122 25.6473 19.1217 27.4286 17.5925 27.4286C15.6152 27.4286 12.934 24.6157 11.0521 22.6413C10.2903 21.8421 9.65942 21.1802 9.2592 20.898C8.55764 20.4031 7.08089 20.0776 5.73794 19.7815C4.95396 19.6086 4.21558 19.4458 3.70365 19.2653C2.31476 18.7755 0 16 0 16Z" fill="#FFCD06"/>
<path fill-rule="evenodd" clip-rule="evenodd" d="M0 16C0 16 2.31476 14.4966 3.70365 14.2313C4.21558 14.1335 4.95396 14.0454 5.73793 13.9517C7.08089 13.7914 8.55764 13.615 9.2592 13.347C9.65942 13.1941 10.2903 12.8356 11.0521 12.4027C12.934 11.3332 15.6152 9.80956 17.5925 9.80956C19.1217 9.80956 21.2122 10.7744 23.0914 11.6418C24.6258 12.35 26.0194 12.9932 26.8518 12.9932C27.6842 12.9932 28.8907 13.2791 30.2191 13.5939C31.8461 13.9794 33.6559 14.4082 35.1851 14.4082C36.5205 14.4082 38.2839 13.9177 40.1152 13.4083C42.0932 12.858 44.1505 12.2858 45.8333 12.2858C47.5161 12.2858 49.5733 12.4765 51.5514 12.6599C53.3827 12.8297 55.146 12.9932 56.4814 12.9932C57.8703 12.9932 59.4907 12.5068 61.111 12.0204C62.7314 11.5341 64.3518 11.0477 65.7407 11.0477C67.1113 11.0477 68.4453 11.4352 69.7969 11.8279C71.1845 12.231 72.5907 12.6395 74.074 12.6395C75.6032 12.6395 77.5533 13.3899 79.3064 14.0646C80.7378 14.6154 82.0379 15.1157 82.8703 15.1157H93.5185C95.2671 15.1157 96.8094 13.854 98.4376 12.5221C100.258 11.0329 102.186 9.45582 104.63 9.45582C108.295 9.45582 111.703 10.2444 114.921 10.9889C117.799 11.6549 120.525 12.2858 123.148 12.2858C125.293 12.2858 126.824 11.8172 128.31 11.3624C129.712 10.9336 131.073 10.517 132.87 10.517C134.954 10.517 136.343 11.6667 137.731 12.8164C139.12 13.966 140.509 15.1157 142.593 15.1157C145.201 15.1157 146.928 14.2171 148.436 13.4326C149.603 12.8249 150.639 12.2858 151.852 12.2858C153.837 12.2858 155.556 11.6762 157.151 11.1104C158.533 10.6205 159.822 10.1633 161.111 10.1633C163.11 10.1633 164.392 10.6192 165.654 11.068C166.878 11.5033 168.084 11.932 169.907 11.932C172.121 11.932 174.074 10.6336 175.904 9.41657C177.518 8.34329 179.037 7.33337 180.556 7.33337C182.407 7.33337 183.796 9.27895 185.185 11.2245C186.574 13.1701 187.963 15.1157 189.815 15.1157H201.852C202.979 15.1157 204.56 14.7335 206.079 14.3663C207.483 14.0271 208.833 13.7007 209.722 13.7007C210.555 13.7007 212.042 13.0575 213.679 12.3493C215.684 11.4819 217.915 10.517 219.444 10.517C220.78 10.517 222.008 11.0076 223.284 11.517C224.662 12.0672 226.095 12.6395 227.778 12.6395C229.945 12.6395 232.224 12.1146 234.299 11.6367C236.033 11.2373 237.624 10.8708 238.889 10.8708C240.6 10.8708 241.882 11.7745 243.151 12.6684C244.392 13.543 245.62 14.4082 247.222 14.4082C249.074 14.4082 250.694 13.5238 252.315 12.6395C253.935 11.7551 255.556 10.8708 257.407 10.8708C259.321 10.8708 260.864 11.5318 262.355 12.1708C263.75 12.7686 265.1 13.347 266.667 13.347C268.415 13.347 269.751 12.243 271.161 11.0776C272.738 9.77453 274.408 8.3946 276.852 8.3946C279.228 8.3946 280.384 9.97822 281.51 11.5201C282.579 12.9829 283.62 14.4082 285.648 14.4082C287.677 14.4082 289.266 12.8991 290.898 11.3503C292.617 9.71763 294.384 8.04086 296.759 8.04086C299.053 8.04086 300.505 9.11291 301.81 10.0767C302.876 10.8636 303.844 11.5783 305.093 11.5783C306.531 11.5783 307.786 12.1355 309.183 12.7554C310.935 13.5326 312.908 14.4082 315.741 14.4082C318.348 14.4082 319.256 13.0177 320.143 11.6604C320.989 10.3662 321.814 9.10208 324.074 9.10208C326.143 9.10208 327.922 10.3157 329.494 11.3874C330.736 12.2347 331.848 12.9932 332.87 12.9932C335.775 12.9932 336.908 13.2833 337.989 13.5601C338.976 13.8128 339.92 14.0545 342.13 14.0545C344.389 14.0545 345.767 12.6218 347.177 11.1551C348.656 9.61674 350.171 8.04086 352.778 8.04086C355.49 8.04086 357.407 9.37609 358.996 10.4822C360.119 11.2644 361.078 11.932 362.037 11.932C364.066 11.932 365.436 12.3512 366.842 12.7814C368.324 13.2349 369.846 13.7007 372.222 13.7007C374.074 13.7007 375.463 12.4626 376.852 11.2245C378.241 9.98644 379.63 8.74834 381.482 8.74834C383.466 8.74834 385.717 10.2087 387.806 11.5642C389.615 12.7381 391.303 13.8334 392.593 13.8334C398.148 13.8334 400 15.0973 400 16H0ZM0 16.0001C0 16.0001 2.31476 17.5035 3.70365 17.7688C4.21559 17.8666 4.95396 17.9548 5.73794 18.0484C7.08089 18.2088 8.55764 18.3851 9.2592 18.6531C9.65942 18.806 10.2903 19.1645 11.0521 19.5975C12.934 20.6669 15.6152 22.1906 17.5925 22.1906C19.1217 22.1906 21.2122 21.2257 23.0914 20.3583C24.6258 19.6501 26.0194 19.0069 26.8518 19.0069C27.6842 19.0069 28.8907 18.721 30.2191 18.4062C31.8461 18.0207 33.6559 17.5919 35.1851 17.5919C36.5205 17.5919 38.2839 18.0824 40.1152 18.5919C42.0932 19.1421 44.1505 19.7144 45.8333 19.7144C47.5161 19.7144 49.5733 19.5236 51.5514 19.3402C53.3827 19.1704 55.146 19.0069 56.4814 19.0069C57.8703 19.0069 59.4907 19.4933 61.111 19.9797C62.7314 20.4661 64.3518 20.9525 65.7407 20.9525C67.1113 20.9525 68.4453 20.5649 69.7969 20.1723C71.1845 19.7691 72.5907 19.3606 74.074 19.3606C75.6032 19.3606 77.5533 18.6102 79.3064 17.9356C80.7378 17.3847 82.0379 16.8844 82.8703 16.8844H93.5185C95.2671 16.8844 96.8094 18.1461 98.4376 19.4781C100.258 20.9672 102.186 22.5443 104.63 22.5443C108.295 22.5443 111.703 21.7558 114.921 21.0112C117.799 20.3452 120.525 19.7144 123.148 19.7144C125.293 19.7144 126.824 20.183 128.31 20.6378C129.712 21.0665 131.073 21.4831 132.87 21.4831C134.954 21.4831 136.343 20.3334 137.731 19.1838C139.12 18.0341 140.509 16.8844 142.593 16.8844C145.201 16.8844 146.928 17.7831 148.436 18.5675C149.603 19.1752 150.639 19.7144 151.852 19.7144C153.837 19.7144 155.556 20.3239 157.151 20.8897C158.533 21.3797 159.822 21.8368 161.111 21.8368C163.11 21.8368 164.392 21.381 165.654 20.9321C166.878 20.4968 168.084 20.0681 169.907 20.0681C172.121 20.0681 174.074 21.3666 175.904 22.5836C177.518 23.6568 179.037 24.6667 180.556 24.6667C182.407 24.6667 183.796 22.7212 185.185 20.7756C186.574 18.83 187.963 16.8844 189.815 16.8844H201.852C202.979 16.8844 204.56 17.2667 206.079 17.6338C207.483 17.973 208.833 18.2994 209.722 18.2994C210.555 18.2994 212.042 18.9426 213.679 19.6508C215.684 20.5182 217.915 21.4831 219.444 21.4831C220.78 21.4831 222.008 20.9926 223.284 20.4831C224.662 19.9329 226.095 19.3606 227.778 19.3606C229.945 19.3606 232.224 19.8855 234.299 20.3634C236.033 20.7628 237.624 21.1293 238.889 21.1293C240.6 21.1293 241.882 20.2256 243.151 19.3317C244.392 18.4571 245.62 17.5919 247.222 17.5919C249.074 17.5919 250.694 18.4763 252.315 19.3606C253.935 20.245 255.556 21.1293 257.407 21.1293C259.321 21.1293 260.864 20.4683 262.355 19.8293C263.75 19.2316 265.1 18.6531 266.667 18.6531C268.415 18.6531 269.751 19.7571 271.161 20.9226C272.738 22.2256 274.408 23.6055 276.852 23.6055C279.228 23.6055 280.384 22.0219 281.51 20.48C282.579 19.0172 283.62 17.5919 285.648 17.5919C287.677 17.5919 289.266 19.101 290.898 20.6499C292.617 22.2825 294.384 23.9593 296.759 23.9593C299.053 23.9593 300.505 22.8872 301.81 21.9235C302.876 21.1366 303.844 20.4218 305.093 20.4218C306.531 20.4218 307.786 19.8646 309.183 19.2447C310.935 18.4676 312.908 17.5919 315.741 17.5919C318.348 17.5919 319.256 18.9824 320.143 20.3398C320.989 21.634 321.814 22.898 324.074 22.898C326.143 22.898 327.922 21.6844 329.494 20.6127C330.736 19.7654 331.848 19.0069 332.87 19.0069C335.775 19.0069 336.908 18.7169 337.989 18.44C338.976 18.1873 339.92 17.9457 342.13 17.9457C344.389 17.9457 345.767 19.3783 347.177 20.845C348.656 22.3834 350.171 23.9593 352.778 23.9593C355.49 23.9593 357.407 22.624 358.996 21.5179C360.119 20.7357 361.078 20.0681 362.037 20.0681C364.066 20.0681 365.436 19.6489 366.842 19.2187C368.324 18.7652 369.846 18.2994 372.222 18.2994C374.074 18.2994 375.463 19.5375 376.852 20.7756C378.241 22.0137 379.63 23.2518 381.482 23.2518C383.466 23.2518 385.717 21.7914 387.806 20.4359C389.615 19.262 391.303 18.1667 392.593 18.1667C398.148 18.1667 400 16.9029 400 16.0001H0Z" fill="#FFCD06"/>
</g>
<g clip-path="url(#clip1_105_20)">
<path opacity="0.4" fill-rule="evenodd" clip-rule="evenodd" d="M0 16C0 16 2.31476 13.2245 3.70365 12.7347C4.21559 12.5542 4.95396 12.3914 5.73794 12.2185C7.08089 11.9224 8.55764 11.5969 9.2592 11.102C9.65942 10.8198 10.2903 10.1579 11.0521 9.35869C12.934 7.38428 15.6152 4.57143 17.5925 4.57143C19.1217 4.57143 21.2122 6.35269 23.0914 7.954C24.6258 9.26147 26.0194 10.449 26.8518 10.449C27.6842 10.449 28.8907 10.9768 30.2191 11.5579C31.8461 12.2696 33.6559 13.0612 35.1851 13.0612C36.5205 13.0612 38.2839 12.1556 40.1152 11.2152C42.0932 10.1994 44.1505 9.14286 45.8333 9.14286C47.5161 9.14286 49.5733 9.49503 51.5514 9.83363C53.3827 10.1471 55.146 10.449 56.4814 10.449C57.8703 10.449 59.4907 9.55102 61.111 8.65306C62.7314 7.7551 64.3518 6.85714 65.7407 6.85714C67.1113 6.85714 68.4453 7.57261 69.7969 8.29751C71.1845 9.04175 72.5907 9.79592 74.074 9.79592C75.6032 9.79592 77.5533 11.1813 79.3064 12.4268C80.7378 13.4437 82.0379 14.3673 82.8703 14.3673H93.5185C95.2671 14.3673 96.8094 12.0381 98.4376 9.57913C100.258 6.82987 102.186 3.91837 104.63 3.91837C108.295 3.91837 111.703 5.37412 114.921 6.74875C117.799 7.97825 120.525 9.14286 123.148 9.14286C125.293 9.14286 126.824 8.27776 128.31 7.43813C129.712 6.64652 131.073 5.87755 132.87 5.87755C134.954 5.87755 136.343 8 137.731 10.1224C139.12 12.2449 140.509 14.3673 142.593 14.3673C145.201 14.3673 146.928 12.7084 148.436 11.2601C149.603 10.1383 150.639 9.14286 151.852 9.14286C153.837 9.14286 155.556 8.01755 157.151 6.97304C158.533 6.06847 159.822 5.22449 161.111 5.22449C163.11 5.22449 164.392 6.06608 165.654 6.89474C166.878 7.69835 168.084 8.4898 169.907 8.4898C172.121 8.4898 174.074 6.09264 175.904 3.84589C177.518 1.86445 179.037 0 180.556 0C182.407 0 183.796 3.59184 185.185 7.18367C186.574 10.7755 187.963 14.3673 189.815 14.3673H201.852C202.979 14.3673 204.56 13.6617 206.079 12.9839C207.483 12.3576 208.833 11.7551 209.722 11.7551C210.555 11.7551 212.042 10.5676 213.679 9.26012C215.684 7.65881 217.915 5.87755 219.444 5.87755C220.78 5.87755 222.008 6.78313 223.284 7.72359C224.662 8.73941 226.095 9.79592 227.778 9.79592C229.945 9.79592 232.224 8.8269 234.299 7.94463C236.033 7.20733 237.624 6.53061 238.889 6.53061C240.6 6.53061 241.882 8.19901 243.151 9.84924C244.392 11.4639 245.62 13.0612 247.222 13.0612C249.074 13.0612 250.694 11.4286 252.315 9.79591C253.935 8.16326 255.556 6.53061 257.407 6.53061C259.321 6.53061 260.864 7.75102 262.355 8.93069C263.75 10.0342 265.1 11.102 266.667 11.102C268.415 11.102 269.751 9.06398 271.161 6.91234C272.738 4.50675 274.408 1.95918 276.852 1.95918C279.228 1.95918 280.384 4.88279 281.51 7.72941C282.579 10.43 283.62 13.0612 285.648 13.0612C287.677 13.0612 289.266 10.2752 290.898 7.41578C292.617 4.40171 294.384 1.30612 296.759 1.30612C299.053 1.30612 300.505 3.2853 301.81 5.06454C302.876 6.51728 303.844 7.83673 305.093 7.83673C306.531 7.83673 307.786 8.86547 309.183 10.0099C310.935 11.4446 312.908 13.0612 315.741 13.0612C318.348 13.0612 319.256 10.4942 320.143 7.98828C320.989 5.59899 321.814 3.26531 324.074 3.26531C326.143 3.26531 327.922 5.5059 329.494 7.48444C330.736 9.0486 331.848 10.449 332.87 10.449C335.775 10.449 336.908 10.9844 337.989 11.4955C338.976 11.962 339.92 12.4082 342.13 12.4082C344.389 12.4082 345.767 9.76332 347.177 7.05546C348.656 4.21545 350.171 1.30612 352.778 1.30612C355.49 1.30612 357.407 3.77118 358.996 5.81329C360.119 7.25728 361.078 8.4898 362.037 8.4898C364.066 8.4898 365.436 9.26369 366.842 10.058C368.324 10.8952 369.846 11.7551 372.222 11.7551C374.074 11.7551 375.463 9.4694 376.852 7.18369C378.241 4.89797 379.63 2.61225 381.482 2.61225C383.466 2.61225 385.717 5.30829 387.806 7.81077C389.615 9.97797 391.303 12 392.593 12C398.148 12 400 14.3333 400 16C400 17.6667 398.148 20 392.593 20C391.303 20 389.615 22.022 387.806 24.1892C385.717 26.6917 383.466 29.3878 381.482 29.3878C379.63 29.3878 378.241 27.102 376.852 24.8163C375.463 22.5306 374.074 20.2449 372.222 20.2449C369.846 20.2449 368.324 21.1048 366.842 21.942C365.436 22.7363 364.066 23.5102 362.037 23.5102C361.078 23.5102 360.119 24.7427 358.996 26.1867C357.407 28.2288 355.49 30.6939 352.778 30.6939C350.171 30.6939 348.656 27.7846 347.177 24.9445C345.767 22.2367 344.389 19.5918 342.13 19.5918C339.92 19.5918 338.976 20.038 337.989 20.5045C336.908 21.0156 335.775 21.551 332.87 21.551C331.848 21.551 330.736 22.9514 329.494 24.5156C327.922 26.4941 326.143 28.7347 324.074 28.7347C321.814 28.7347 320.989 26.401 320.143 24.0117C319.256 21.5058 318.348 18.9388 315.741 18.9388C312.908 18.9388 310.935 20.5554 309.183 21.99C307.786 23.1345 306.531 24.1633 305.093 24.1633C303.844 24.1633 302.876 25.4827 301.81 26.9355C300.505 28.7147 299.053 30.6939 296.759 30.6939C294.384 30.6939 292.617 27.5983 290.898 24.5842C289.266 21.7248 287.677 18.9388 285.648 18.9388C283.62 18.9388 282.579 21.57 281.51 24.2706C280.384 27.1172 279.228 30.0408 276.852 30.0408C274.408 30.0408 272.738 27.4933 271.161 25.0877C269.751 22.936 268.415 20.898 266.667 20.898C265.1 20.898 263.75 21.9658 262.355 23.0693C260.864 24.249 259.321 25.4694 257.407 25.4694C255.556 25.4694 253.935 23.8367 252.315 22.2041C250.694 20.5714 249.074 18.9388 247.222 18.9388C245.62 18.9388 244.392 20.5361 243.151 22.1508C241.882 23.801 240.6 25.4694 238.889 25.4694C237.624 25.4694 236.033 24.7927 234.299 24.0554C232.224 23.1731 229.945 22.2041 227.778 22.2041C226.095 22.2041 224.662 23.2606 223.284 24.2764C222.008 25.2169 220.78 26.1224 219.444 26.1224C217.915 26.1224 215.684 24.3412 213.679 22.7399C212.042 21.4324 210.555 20.2449 209.722 20.2449C208.833 20.2449 207.483 19.6424 206.079 19.0161C204.56 18.3383 202.979 17.6327 201.852 17.6327H189.815C187.963 17.6327 186.574 21.2245 185.185 24.8163C183.796 28.4082 182.407 32 180.556 32C179.037 32 177.518 30.1355 175.904 28.1541C174.074 25.9074 172.121 23.5102 169.907 23.5102C168.084 23.5102 166.878 24.3017 165.654 25.1053C164.392 25.9339 163.11 26.7755 161.111 26.7755C159.822 26.7755 158.533 25.9315 157.151 25.027C155.556 23.9824 153.837 22.8571 151.852 22.8571C150.639 22.8571 149.603 21.8617 148.436 20.7399C146.928 19.2916 145.201 17.6327 142.593 17.6327C140.509 17.6327 139.12 19.7551 137.731 21.8776C136.343 24 134.954 26.1224 132.87 26.1224C131.073 26.1224 129.712 25.3535 128.31 24.5619C126.824 23.7222 125.293 22.8571 123.148 22.8571C120.525 22.8571 117.799 24.0217 114.921 25.2512C111.703 26.6259 108.295 28.0816 104.63 28.0816C102.186 28.0816 100.258 25.1701 98.4376 22.4209C96.8094 19.9619 95.2671 17.6327 93.5185 17.6327H82.8703C82.0379 17.6327 80.7378 18.5563 79.3064 19.5732C77.5533 20.8187 75.6032 22.2041 74.074 22.2041C72.5907 22.2041 71.1845 22.9583 69.7969 23.7025C68.4453 24.4274 67.1113 25.1429 65.7407 25.1429C64.3518 25.1429 62.7314 24.2449 61.111 23.3469C59.4907 22.449 57.8703 21.551 56.4814 21.551C55.146 21.551 53.3827 21.8529 51.5514 22.1664C49.5733 22.505 47.5161 22.8571 45.8333 22.8571C44.1505 22.8571 42.0932 21.8006 40.1152 20.7848C38.2839 19.8444 36.5205 18.9388 35.1851 18.9388C33.6559 18.9388 31.8461 19.7304 30.2191 20.4421C28.8907 21.0232 27.6842 21.551 26.8518 21.551C26.0194 21.551 24.6258 22.7385 23.0914 24.046C21.2122 25.6473 19.1217 27.4286 17.5925 27.4286C15.6152 27.4286 12.934 24.6157 11.0521 22.6413C10.2903 21.8421 9.65942 21.1802 9.2592 20.898C8.55764 20.4031 7.08089 20.0776 5.73794 19.7815C4.95396 19.6086 4.21558 19.4458 3.70365 19.2653C2.31476 18.7755 0 16 0 16Z" fill="#FFCD06"/>
<path fill-rule="evenodd" clip-rule="evenodd" d="M0 16C0 16 2.31476 14.4966 3.70365 14.2313C4.21558 14.1335 4.95396 14.0454 5.73793 13.9517C7.08089 13.7914 8.55764 13.615 9.2592 13.347C9.65942 13.1941 10.2903 12.8356 11.0521 12.4027C12.934 11.3332 15.6152 9.80956 17.5925 9.80956C19.1217 9.80956 21.2122 10.7744 23.0914 11.6418C24.6258 12.35 26.0194 12.9932 26.8518 12.9932C27.6842 12.9932 28.8907 13.2791 30.2191 13.5939C31.8461 13.9794 33.6559 14.4082 35.1851 14.4082C36.5205 14.4082 38.2839 13.9177 40.1152 13.4083C42.0932 12.858 44.1505 12.2858 45.8333 12.2858C47.5161 12.2858 49.5733 12.4765 51.5514 12.6599C53.3827 12.8297 55.146 12.9932 56.4814 12.9932C57.8703 12.9932 59.4907 12.5068 61.111 12.0204C62.7314 11.5341 64.3518 11.0477 65.7407 11.0477C67.1113 11.0477 68.4453 11.4352 69.7969 11.8279C71.1845 12.231 72.5907 12.6395 74.074 12.6395C75.6032 12.6395 77.5533 13.3899 79.3064 14.0646C80.7378 14.6154 82.0379 15.1157 82.8703 15.1157H93.5185C95.2671 15.1157 96.8094 13.854 98.4376 12.5221C100.258 11.0329 102.186 9.45582 104.63 9.45582C108.295 9.45582 111.703 10.2444 114.921 10.9889C117.799 11.6549 120.525 12.2858 123.148 12.2858C125.293 12.2858 126.824 11.8172 128.31 11.3624C129.712 10.9336 131.073 10.517 132.87 10.517C134.954 10.517 136.343 11.6667 137.731 12.8164C139.12 13.966 140.509 15.1157 142.593 15.1157C145.201 15.1157 146.928 14.2171 148.436 13.4326C149.603 12.8249 150.639 12.2858 151.852 12.2858C153.837 12.2858 155.556 11.6762 157.151 11.1104C158.533 10.6205 159.822 10.1633 161.111 10.1633C163.11 10.1633 164.392 10.6192 165.654 11.068C166.878 11.5033 168.084 11.932 169.907 11.932C172.121 11.932 174.074 10.6336 175.904 9.41657C177.518 8.34329 179.037 7.33337 180.556 7.33337C182.407 7.33337 183.796 9.27895 185.185 11.2245C186.574 13.1701 187.963 15.1157 189.815 15.1157H201.852C202.979 15.1157 204.56 14.7335 206.079 14.3663C207.483 14.0271 208.833 13.7007 209.722 13.7007C210.555 13.7007 212.042 13.0575 213.679 12.3493C215.684 11.4819 217.915 10.517 219.444 10.517C220.78 10.517 222.008 11.0076 223.284 11.517C224.662 12.0672 226.095 12.6395 227.778 12.6395C229.945 12.6395 232.224 12.1146 234.299 11.6367C236.033 11.2373 237.624 10.8708 238.889 10.8708C240.6 10.8708 241.882 11.7745 243.151 12.6684C244.392 13.543 245.62 14.4082 247.222 14.4082C249.074 14.4082 250.694 13.5238 252.315 12.6395C253.935 11.7551 255.556 10.8708 257.407 10.8708C259.321 10.8708 260.864 11.5318 262.355 12.1708C263.75 12.7686 265.1 13.347 266.667 13.347C268.415 13.347 269.751 12.243 271.161 11.0776C272.738 9.77453 274.408 8.3946 276.852 8.3946C279.228 8.3946 280.384 9.97822 281.51 11.5201C282.579 12.9829 283.62 14.4082 285.648 14.4082C287.677 14.4082 289.266 12.8991 290.898 11.3503C292.617 9.71763 294.384 8.04086 296.759 8.04086C299.053 8.04086 300.505 9.11291 301.81 10.0767C302.876 10.8636 303.844 11.5783 305.093 11.5783C306.531 11.5783 307.786 12.1355 309.183 12.7554C310.935 13.5326 312.908 14.4082 315.741 14.4082C318.348 14.4082 319.256 13.0177 320.143 11.6604C320.989 10.3662 321.814 9.10208 324.074 9.10208C326.143 9.10208 327.922 10.3157 329.494 11.3874C330.736 12.2347 331.848 12.9932 332.87 12.9932C335.775 12.9932 336.908 13.2833 337.989 13.5601C338.976 13.8128 339.92 14.0545 342.13 14.0545C344.389 14.0545 345.767 12.6218 347.177 11.1551C348.656 9.61674 350.171 8.04086 352.778 8.04086C355.49 8.04086 357.407 9.37609 358.996 10.4822C360.119 11.2644 361.078 11.932 362.037 11.932C364.066 11.932 365.436 12.3512 366.842 12.7814C368.324 13.2349 369.846 13.7007 372.222 13.7007C374.074 13.7007 375.463 12.4626 376.852 11.2245C378.241 9.98644 379.63 8.74834 381.482 8.74834C383.466 8.74834 385.717 10.2087 387.806 11.5642C389.615 12.7381 391.303 13.8334 392.593 13.8334C398.148 13.8334 400 15.0973 400 16H0ZM0 16.0001C0 16.0001 2.31476 17.5035 3.70365 17.7688C4.21559 17.8666 4.95396 17.9548 5.73794 18.0484C7.08089 18.2088 8.55764 18.3851 9.2592 18.6531C9.65942 18.806 10.2903 19.1645 11.0521 19.5975C12.934 20.6669 15.6152 22.1906 17.5925 22.1906C19.1217 22.1906 21.2122 21.2257 23.0914 20.3583C24.6258 19.6501 26.0194 19.0069 26.8518 19.0069C27.6842 19.0069 28.8907 18.721 30.2191 18.4062C31.8461 18.0207 33.6559 17.5919 35.1851 17.5919C36.5205 17.5919 38.2839 18.0824 40.1152 18.5919C42.0932 19.1421 44.1505 19.7144 45.8333 19.7144C47.5161 19.7144 49.5733 19.5236 51.5514 19.3402C53.3827 19.1704 55.146 19.0069 56.4814 19.0069C57.8703 19.0069 59.4907 19.4933 61.111 19.9797C62.7314 20.4661 64.3518 20.9525 65.7407 20.9525C67.1113 20.9525 68.4453 20.5649 69.7969 20.1723C71.1845 19.7691 72.5907 19.3606 74.074 19.3606C75.6032 19.3606 77.5533 18.6102 79.3064 17.9356C80.7378 17.3847 82.0379 16.8844 82.8703 16.8844H93.5185C95.2671 16.8844 96.8094 18.1461 98.4376 19.4781C100.258 20.9672 102.186 22.5443 104.63 22.5443C108.295 22.5443 111.703 21.7558 114.921 21.0112C117.799 20.3452 120.525 19.7144 123.148 19.7144C125.293 19.7144 126.824 20.183 128.31 20.6378C129.712 21.0665 131.073 21.4831 132.87 21.4831C134.954 21.4831 136.343 20.3334 137.731 19.1838C139.12 18.0341 140.509 16.8844 142.593 16.8844C145.201 16.8844 146.928 17.7831 148.436 18.5675C149.603 19.1752 150.639 19.7144 151.852 19.7144C153.837 19.7144 155.556 20.3239 157.151 20.8897C158.533 21.3797 159.822 21.8368 161.111 21.8368C163.11 21.8368 164.392 21.381 165.654 20.9321C166.878 20.4968 168.084 20.0681 169.907 20.0681C172.121 20.0681 174.074 21.3666 175.904 22.5836C177.518 23.6568 179.037 24.6667 180.556 24.6667C182.407 24.6667 183.796 22.7212 185.185 20.7756C186.574 18.83 187.963 16.8844 189.815 16.8844H201.852C202.979 16.8844 204.56 17.2667 206.079 17.6338C207.483 17.973 208.833 18.2994 209.722 18.2994C210.555 18.2994 212.042 18.9426 213.679 19.6508C215.684 20.5182 217.915 21.4831 219.444 21.4831C220.78 21.4831 222.008 20.9926 223.284 20.4831C224.662 19.9329 226.095 19.3606 227.778 19.3606C229.945 19.3606 232.224 19.8855 234.299 20.3634C236.033 20.7628 237.624 21.1293 238.889 21.1293C240.6 21.1293 241.882 20.2256 243.151 19.3317C244.392 18.4571 245.62 17.5919 247.222 17.5919C249.074 17.5919 250.694 18.4763 252.315 19.3606C253.935 20.245 255.556 21.1293 257.407 21.1293C259.321 21.1293 260.864 20.4683 262.355 19.8293C263.75 19.2316 265.1 18.6531 266.667 18.6531C268.415 18.6531 269.751 19.7571 271.161 20.9226C272.738 22.2256 274.408 23.6055 276.852 23.6055C279.228 23.6055 280.384 22.0219 281.51 20.48C282.579 19.0172 283.62 17.5919 285.648 17.5919C287.677 17.5919 289.266 19.101 290.898 20.6499C292.617 22.2825 294.384 23.9593 296.759 23.9593C299.053 23.9593 300.505 22.8872 301.81 21.9235C302.876 21.1366 303.844 20.4218 305.093 20.4218C306.531 20.4218 307.786 19.8646 309.183 19.2447C310.935 18.4676 312.908 17.5919 315.741 17.5919C318.348 17.5919 319.256 18.9824 320.143 20.3398C320.989 21.634 321.814 22.898 324.074 22.898C326.143 22.898 327.922 21.6844 329.494 20.6127C330.736 19.7654 331.848 19.0069 332.87 19.0069C335.775 19.0069 336.908 18.7169 337.989 18.44C338.976 18.1873 339.92 17.9457 342.13 17.9457C344.389 17.9457 345.767 19.3783 347.177 20.845C348.656 22.3834 350.171 23.9593 352.778 23.9593C355.49 23.9593 357.407 22.624 358.996 21.5179C360.119 20.7357 361.078 20.0681 362.037 20.0681C364.066 20.0681 365.436 19.6489 366.842 19.2187C368.324 18.7652 369.846 18.2994 372.222 18.2994C374.074 18.2994 375.463 19.5375 376.852 20.7756C378.241 22.0137 379.63 23.2518 381.482 23.2518C383.466 23.2518 385.717 21.7914 387.806 20.4359C389.615 19.262 391.303 18.1667 392.593 18.1667C398.148 18.1667 400 16.9029 400 16.0001H0Z" fill="#3A3A3A"/>
<line x1="276.5" y1="3.5" x2="276.5" y2="28.5" stroke="#FF2626" stroke-width="3" stroke-linecap="round" stroke-linejoin="round"/>
</g>
<path opacity="0.6" d="M3.66 46.084C3.236 46.084 2.852 46.016 2.508 45.88C2.172 45.736 1.884 45.508 1.644 45.196C1.404 44.884 1.22 44.484 1.092 43.996C0.964 43.5 0.9 42.896 0.9 42.184V41.416C0.9 40.712 0.964 40.116 1.092 39.628C1.228 39.132 1.416 38.728 1.656 38.416C1.896 38.104 2.184 37.876 2.52 37.732C2.864 37.588 3.244 37.516 3.66 37.516C4.076 37.516 4.452 37.588 4.788 37.732C5.132 37.868 5.424 38.092 5.664 38.404C5.904 38.716 6.088 39.12 6.216 39.616C6.352 40.112 6.42 40.712 6.42 41.416V42.184C6.42 42.888 6.352 43.488 6.216 43.984C6.088 44.472 5.904 44.872 5.664 45.184C5.424 45.496 5.132 45.724 4.788 45.868C4.452 46.012 4.076 46.084 3.66 46.084ZM3.66 45.292C3.948 45.292 4.208 45.244 4.44 45.148C4.68 45.044 4.88 44.872 5.04 44.632C5.208 44.392 5.336 44.072 5.424 43.672C5.512 43.272 5.556 42.776 5.556 42.184V41.416C5.556 40.824 5.512 40.332 5.424 39.94C5.336 39.54 5.208 39.22 5.04 38.98C4.872 38.74 4.672 38.568 4.44 38.464C4.208 38.36 3.948 38.308 3.66 38.308C3.372 38.308 3.108 38.36 2.868 38.464C2.636 38.56 2.436 38.728 2.268 38.968C2.108 39.208 1.984 39.528 1.896 39.928C1.808 40.328 1.764 40.824 1.764 41.416V42.184C1.764 42.776 1.808 43.272 1.896 43.672C1.984 44.064 2.112 44.38 2.28 44.62C2.448 44.86 2.648 45.032 2.88 45.136C3.112 45.24 3.372 45.292 3.66 45.292ZM7.86422 45.232L10.8402 42.28C11.0962 42.024 11.3202 41.792 11.5122 41.584C11.7122 41.376 11.8762 41.18 12.0042 40.996C12.1402 40.812 12.2402 40.636 12.3042 40.468C12.3682 40.3 12.4002 40.124 12.4002 39.94C12.4002 39.468 12.2362 39.08 11.9082 38.776C11.5802 38.464 11.1322 38.308 10.5642 38.308C9.99622 38.308 9.54822 38.464 9.22022 38.776C8.89222 39.08 8.72822 39.468 8.72822 39.94H7.86422C7.86422 39.596 7.92822 39.276 8.05622 38.98C8.18422 38.684 8.36422 38.428 8.59622 38.212C8.82822 37.996 9.11222 37.828 9.44822 37.708C9.78422 37.58 10.1562 37.516 10.5642 37.516C10.9722 37.516 11.3442 37.58 11.6802 37.708C12.0162 37.828 12.3002 37.996 12.5322 38.212C12.7642 38.428 12.9442 38.684 13.0722 38.98C13.2002 39.276 13.2642 39.596 13.2642 39.94C13.2642 40.404 13.1042 40.856 12.7842 41.296C12.4722 41.736 12.0362 42.228 11.4762 42.772L8.94422 45.232H13.2642V46H7.86422V45.232ZM15.4219 41.236C15.2299 41.236 15.0699 41.172 14.9419 41.044C14.8219 40.916 14.7619 40.76 14.7619 40.576C14.7619 40.392 14.8219 40.236 14.9419 40.108C15.0699 39.98 15.2299 39.916 15.4219 39.916C15.6139 39.916 15.7699 39.98 15.8899 40.108C16.0179 40.236 16.0819 40.392 16.0819 40.576C16.0819 40.76 16.0179 40.916 15.8899 41.044C15.7699 41.172 15.6139 41.236 15.4219 41.236ZM15.4219 46.084C15.2299 46.084 15.0699 46.02 14.9419 45.892C14.8219 45.764 14.7619 45.608 14.7619 45.424C14.7619 45.24 14.8219 45.084 14.9419 44.956C15.0699 44.828 15.2299 44.764 15.4219 44.764C15.6139 44.764 15.7699 44.828 15.8899 44.956C16.0179 45.084 16.0819 45.24 16.0819 45.424C16.0819 45.608 16.0179 45.764 15.8899 45.892C15.7699 46.02 15.6139 46.084 15.4219 46.084ZM17.2819 38.836L19.0819 37.6H19.9219V46H19.0819V38.548L17.2819 39.772V38.836ZM24.7772 46.084C24.3532 46.084 23.9692 46.016 23.6252 45.88C23.2892 45.736 23.0012 45.508 22.7612 45.196C22.5212 44.884 22.3372 44.484 22.2092 43.996C22.0812 43.5 22.0172 42.896 22.0172 42.184V41.416C22.0172 40.712 22.0812 40.116 22.2092 39.628C22.3452 39.132 22.5332 38.728 22.7732 38.416C23.0132 38.104 23.3012 37.876 23.6372 37.732C23.9812 37.588 24.3612 37.516 24.7772 37.516C25.1932 37.516 25.5692 37.588 25.9052 37.732C26.2492 37.868 26.5412 38.092 26.7812 38.404C27.0212 38.716 27.2052 39.12 27.3332 39.616C27.4692 40.112 27.5372 40.712 27.5372 41.416V42.184C27.5372 42.888 27.4692 43.488 27.3332 43.984C27.2052 44.472 27.0212 44.872 26.7812 45.184C26.5412 45.496 26.2492 45.724 25.9052 45.868C25.5692 46.012 25.1932 46.084 24.7772 46.084ZM24.7772 45.292C25.0652 45.292 25.3252 45.244 25.5572 45.148C25.7972 45.044 25.9972 44.872 26.1572 44.632C26.3252 44.392 26.4532 44.072 26.5412 43.672C26.6292 43.272 26.6732 42.776 26.6732 42.184V41.416C26.6732 40.824 26.6292 40.332 26.5412 39.94C26.4532 39.54 26.3252 39.22 26.1572 38.98C25.9892 38.74 25.7892 38.568 25.5572 38.464C25.3252 38.36 25.0652 38.308 24.7772 38.308C24.4892 38.308 24.2252 38.36 23.9852 38.464C23.7532 38.56 23.5532 38.728 23.3852 38.968C23.2252 39.208 23.1012 39.528 23.0132 39.928C22.9252 40.328 22.8812 40.824 22.8812 41.416V42.184C22.8812 42.776 22.9252 43.272 23.0132 43.672C23.1012 44.064 23.2292 44.38 23.3972 44.62C23.5652 44.86 23.7652 45.032 23.9972 45.136C24.2292 45.24 24.4892 45.292 24.7772 45.292Z" fill="white"/>
<path opacity="0.6" d="M372.03 46.084C371.606 46.084 371.222 46.016 370.878 45.88C370.542 45.736 370.254 45.508 370.014 45.196C369.774 44.884 369.59 44.484 369.462 43.996C369.334 43.5 369.27 42.896 369.27 42.184V41.416C369.27 40.712 369.334 40.116 369.462 39.628C369.598 39.132 369.786 38.728 370.026 38.416C370.266 38.104 370.554 37.876 370.89 37.732C371.234 37.588 371.614 37.516 372.03 37.516C372.446 37.516 372.822 37.588 373.158 37.732C373.502 37.868 373.794 38.092 374.034 38.404C374.274 38.716 374.458 39.12 374.586 39.616C374.722 40.112 374.79 40.712 374.79 41.416V42.184C374.79 42.888 374.722 43.488 374.586 43.984C374.458 44.472 374.274 44.872 374.034 45.184C373.794 45.496 373.502 45.724 373.158 45.868C372.822 46.012 372.446 46.084 372.03 46.084ZM372.03 45.292C372.318 45.292 372.578 45.244 372.81 45.148C373.05 45.044 373.25 44.872 373.41 44.632C373.578 44.392 373.706 44.072 373.794 43.672C373.882 43.272 373.926 42.776 373.926 42.184V41.416C373.926 40.824 373.882 40.332 373.794 39.94C373.706 39.54 373.578 39.22 373.41 38.98C373.242 38.74 373.042 38.568 372.81 38.464C372.578 38.36 372.318 38.308 372.03 38.308C371.742 38.308 371.478 38.36 371.238 38.464C371.006 38.56 370.806 38.728 370.638 38.968C370.478 39.208 370.354 39.528 370.266 39.928C370.178 40.328 370.134 40.824 370.134 41.416V42.184C370.134 42.776 370.178 43.272 370.266 43.672C370.354 44.064 370.482 44.38 370.65 44.62C370.818 44.86 371.018 45.032 371.25 45.136C371.482 45.24 371.742 45.292 372.03 45.292ZM379.114 46.084C378.266 46.084 377.602 45.848 377.122 45.376C376.65 44.904 376.394 44.252 376.354 43.42H377.218C377.258 44.02 377.438 44.484 377.758 44.812C378.078 45.132 378.53 45.292 379.114 45.292C379.738 45.292 380.21 45.144 380.53 44.848C380.85 44.544 381.01 44.148 381.01 43.66C381.01 43.188 380.854 42.804 380.542 42.508C380.23 42.212 379.79 42.064 379.222 42.064H378.094V41.296H379.222C379.726 41.296 380.118 41.16 380.398 40.888C380.686 40.608 380.83 40.248 380.83 39.808C380.83 39.352 380.682 38.988 380.386 38.716C380.098 38.444 379.674 38.308 379.114 38.308C378.61 38.308 378.21 38.456 377.914 38.752C377.626 39.04 377.454 39.436 377.398 39.94H376.534C376.55 39.572 376.622 39.24 376.75 38.944C376.878 38.648 377.05 38.396 377.266 38.188C377.49 37.972 377.758 37.808 378.07 37.696C378.382 37.576 378.73 37.516 379.114 37.516C379.522 37.516 379.886 37.572 380.206 37.684C380.526 37.796 380.794 37.952 381.01 38.152C381.234 38.352 381.402 38.596 381.514 38.884C381.634 39.164 381.694 39.472 381.694 39.808C381.694 40.216 381.594 40.584 381.394 40.912C381.202 41.232 380.922 41.484 380.554 41.668C380.986 41.852 381.314 42.12 381.538 42.472C381.762 42.816 381.874 43.212 381.874 43.66C381.874 44.02 381.81 44.348 381.682 44.644C381.562 44.94 381.386 45.196 381.154 45.412C380.922 45.62 380.634 45.784 380.29 45.904C379.946 46.024 379.554 46.084 379.114 46.084ZM384.155 41.236C383.963 41.236 383.803 41.172 383.675 41.044C383.555 40.916 383.495 40.76 383.495 40.576C383.495 40.392 383.555 40.236 383.675 40.108C383.803 39.98 383.963 39.916 384.155 39.916C384.347 39.916 384.503 39.98 384.623 40.108C384.751 40.236 384.815 40.392 384.815 40.576C384.815 40.76 384.751 40.916 384.623 41.044C384.503 41.172 384.347 41.236 384.155 41.236ZM384.155 46.084C383.963 46.084 383.803 46.02 383.675 45.892C383.555 45.764 383.495 45.608 383.495 45.424C383.495 45.24 383.555 45.084 383.675 44.956C383.803 44.828 383.963 44.764 384.155 44.764C384.347 44.764 384.503 44.828 384.623 44.956C384.751 45.084 384.815 45.24 384.815 45.424C384.815 45.608 384.751 45.764 384.623 45.892C384.503 46.02 384.347 46.084 384.155 46.084ZM389.075 46.084C388.227 46.084 387.563 45.848 387.083 45.376C386.611 44.904 386.355 44.252 386.315 43.42H387.179C387.219 44.02 387.399 44.484 387.719 44.812C388.039 45.132 388.491 45.292 389.075 45.292C389.699 45.292 390.171 45.144 390.491 44.848C390.811 44.544 390.971 44.148 390.971 43.66C390.971 43.188 390.815 42.804 390.503 42.508C390.191 42.212 389.751 42.064 389.183 42.064H388.055V41.296H389.183C389.687 41.296 390.079 41.16 390.359 40.888C390.647 40.608 390.791 40.248 390.791 39.808C390.791 39.352 390.643 38.988 390.347 38.716C390.059 38.444 389.635 38.308 389.075 38.308C388.571 38.308 388.171 38.456 387.875 38.752C387.587 39.04 387.415 39.436 387.359 39.94H386.495C386.511 39.572 386.583 39.24 386.711 38.944C386.839 38.648 387.011 38.396 387.227 38.188C387.451 37.972 387.719 37.808 388.031 37.696C388.343 37.576 388.691 37.516 389.075 37.516C389.483 37.516 389.847 37.572 390.167 37.684C390.487 37.796 390.755 37.952 390.971 38.152C391.195 38.352 391.363 38.596 391.475 38.884C391.595 39.164 391.655 39.472 391.655 39.808C391.655 40.216 391.555 40.584 391.355 40.912C391.163 41.232 390.883 41.484 390.515 41.668C390.947 41.852 391.275 42.12 391.499 42.472C391.723 42.816 391.835 43.212 391.835 43.66C391.835 44.02 391.771 44.348 391.643 44.644C391.523 44.94 391.347 45.196 391.115 45.412C390.883 45.62 390.595 45.784 390.251 45.904C389.907 46.024 389.515 46.084 389.075 46.084ZM396.096 46.084C395.76 46.084 395.456 46.036 395.184 45.94C394.92 45.844 394.688 45.716 394.488 45.556C394.288 45.388 394.12 45.196 393.984 44.98C393.856 44.756 393.764 44.516 393.708 44.26H394.596C394.716 44.556 394.892 44.8 395.124 44.992C395.356 45.184 395.68 45.28 396.096 45.28C396.376 45.28 396.628 45.232 396.852 45.136C397.084 45.032 397.284 44.864 397.452 44.632C397.62 44.392 397.752 44.08 397.848 43.696C397.952 43.304 398.012 42.816 398.028 42.232C397.812 42.536 397.532 42.776 397.188 42.952C396.852 43.12 396.468 43.204 396.036 43.204C395.668 43.204 395.328 43.14 395.016 43.012C394.704 42.876 394.432 42.688 394.2 42.448C393.968 42.208 393.784 41.924 393.648 41.596C393.52 41.268 393.456 40.904 393.456 40.504V40.216C393.456 39.824 393.52 39.464 393.648 39.136C393.784 38.8 393.968 38.512 394.2 38.272C394.44 38.032 394.72 37.848 395.04 37.72C395.36 37.584 395.712 37.516 396.096 37.516C396.512 37.516 396.888 37.588 397.224 37.732C397.568 37.868 397.86 38.08 398.1 38.368C398.34 38.656 398.524 39.024 398.652 39.472C398.788 39.912 398.856 40.44 398.856 41.056V41.824C398.856 42.6 398.788 43.26 398.652 43.804C398.516 44.34 398.324 44.78 398.076 45.124C397.828 45.46 397.536 45.704 397.2 45.856C396.864 46.008 396.496 46.084 396.096 46.084ZM396.096 42.412C396.376 42.412 396.632 42.372 396.864 42.292C397.096 42.204 397.292 42.088 397.452 41.944C397.62 41.792 397.748 41.612 397.836 41.404C397.932 41.196 397.984 40.964 397.992 40.708V40.336C397.992 39.688 397.82 39.188 397.476 38.836C397.14 38.484 396.68 38.308 396.096 38.308C395.568 38.308 395.14 38.48 394.812 38.824C394.484 39.16 394.32 39.624 394.32 40.216V40.504C394.32 41.096 394.484 41.564 394.812 41.908C395.14 42.244 395.568 42.412 396.096 42.412Z" fill="white"/>
<defs>
<clipPath id="clip0_105_20">
<rect width="276" height="32" fill="white"/>
</clipPath>
<clipPath id="clip1_105_20">
<rect width="124" height="32" fill="white" transform="translate(276)"/>
</clipPath>
</defs>
</svg>
